{"title":"The Name of the Rose (1986) DVDRip - 2CDs","uid":6971334,"size":885888731,"categoryP":"video","categoryS":"movies","magnet":"?xt=urn:btih:1aa892ae8dd5c1107376b46efa616e6688aa2bc8&amp;dn=The+Name+of+the+Rose+%281986%29+DVDRip+-+2CDs&amp;tr=udp%3A%2F%2Ftracker.openbittorrent.com%3A80&amp;tr=udp%3A%2F%2Fopen.demonii.com%3A1337&amp;tr=udp%3A%2F%2Ftracker.coppersurfer.tk%3A6969&amp;tr=udp%3A%2F%2Fexodus.desync.com%3A6969","seeders":0,"leechers":1,"uploader":"xiliaeuro","files":4,"time":1327100704,"description":"plot: An intellectually nonconformist monk investigates a series of mysterious deaths in an isolated abbey. \n\nIMDB Ratings: 7.8/10\n\ngreek subtitles included in separate file\n\n\nFormat                         : AVI\nFormat/Info                    : Audio Video Interleave\nFile size                      : 347 MiB\nDuration                       : 1h 4mn\nOverall bit rate mode          : Variable\nOverall bit rate               : 754 Kbps\nWriting application            : Nandub v1.0rc2\nWriting library                : Nandub build 1852/release\n\nVideo\nID                             : 0\nFormat                         : MPEG-4 Visual\nFormat settings, BVOP          : 1\nFormat settings, QPel          : No\nFormat settings, GMC           : 2 warppoints\nFormat settings, Matrix        : Default (H.263)\nMuxing mode                    : Packed bitstream\nCodec ID                       : DX50\nCodec ID/Hint                  : DivX 5\nDuration                       : 1h 4mn\nBit rate                       : 615 Kbps\nWidth                          : 576 pixels\nHeight                         : 320 pixels\nDisplay aspect ratio           : 16:9\nFrame rate                     : 23.976 fps\nColor space                    : YUV\nChroma subsampling             : 4:2:0\nBit depth                      : 8 bits\nScan type                      : Progressive\nCompression mode               : Lossy\nBits/(Pixel*Frame)             : 0.139\nStream size                    : 283 MiB (81%)\nWriting library                : DivX 5.0.2 (UTC 2002-05-16)\n\nAudio\nID                             : 1\nFormat                         : MPEG Audio\nFormat version                 : Version 1\nFormat profile                 : Layer 3\nMode                           : Joint stereo\nMode extension                 : MS Stereo\nCodec ID                       : 55\nCodec ID/Hint                  : MP3\nDuration                       : 1h 4mn\nBit rate mode                  : Variable\nBit rate                       : 128 Kbps\nChannel(s)                     : 2 channels\nSampling rate                  : 48.0 KHz\nCompression mode               : Lossy\nStream size                    : 58.4 MiB (17%)\nAlignment                      : Aligned on interleaves\nInterleave, duration           : 24 ms (0.58 video frame)\nInterleave, preload duration   : 482 ms\nWriting library                : LAME3.92 \nEncoding settings              : -m j -V 4 -q 2 -lowpass 17.5 --abr 128\n\n","torrent":{"xt":"urn:btih:1aa892ae8dd5c1107376b46efa616e6688aa2bc8","amp;dn":"The+Name+of+the+Rose+%281986%29+DVDRip+-+2CDs","amp;tr":["udp%3A%2F%2Ftracker.openbittorrent.com%3A80","udp%3A%2F%2Fopen.demonii.com%3A1337","udp%3A%2F%2Ftracker.coppersurfer.tk%3A6969","udp%3A%2F%2Fexodus.desync.com%3A6969"],"infoHash":"1aa892ae8dd5c1107376b46efa616e6688aa2bc8","infoHashBuffer":{"type":"Buffer","data":[26,168,146,174,141,213,193,16,115,118,180,110,250,97,110,102,136,170,43,200]},"announce":[],"urlList":[]}}